# MagicaVoxel @ Ephtracy

# material
mtllib wd40.mtl
usemtl palette

# normals
vn -1 0 0
vn 1 0 0
vn 0 0 1
vn 0 0 -1
vn 0 -1 0
vn 0 1 0

# texcoords
vt 0.0214844 0.5
vt 0.947266 0.5

# verts
v -11 0 5
v -11 0 -2
v -11 34 5
v -11 34 -2
v -10 0 7
v -10 0 5
v -10 0 -2
v -10 0 -4
v -10 34 7
v -10 34 5
v -10 34 -2
v -10 34 -4
v -9 0 8
v -9 0 7
v -9 0 -4
v -9 0 -5
v -9 25 8
v -9 25 7
v -9 33 8
v -9 33 7
v -9 34 8
v -9 34 7
v -9 34 -4
v -9 34 -5
v -8 0 9
v -8 0 8
v -8 0 -5
v -8 0 -6
v -8 24 9
v -8 24 8
v -8 25 8
v -8 33 9
v -8 33 8
v -8 34 9
v -8 34 8
v -8 34 -5
v -8 34 -6
v -7 0 10
v -7 0 9
v -7 0 -6
v -7 0 -7
v -7 23 10
v -7 23 9
v -7 24 9
v -7 33 10
v -7 33 9
v -7 34 10
v -7 34 9
v -7 34 3
v -7 34 -0
v -7 34 -6
v -7 34 -7
v -7 35 3
v -7 35 -0
v -6 0 11
v -6 0 10
v -6 0 -7
v -6 0 -8
v -6 22 11
v -6 22 10
v -6 23 10
v -6 33 11
v -6 33 10
v -6 34 11
v -6 34 10
v -6 34 4
v -6 34 3
v -6 34 -0
v -6 34 -1
v -6 34 -7
v -6 34 -8
v -6 35 4
v -6 35 3
v -6 35 2
v -6 35 1
v -6 35 -0
v -6 35 -1
v -6 36 2
v -6 36 1
v -5 36 3
v -5 36 2
v -5 36 1
v -5 38 3
v -5 38 1
v -4 0 12
v -4 0 11
v -4 0 -8
v -4 0 -9
v -4 21 12
v -4 21 11
v -4 22 12
v -4 22 11
v -4 24 12
v -4 24 11
v -4 27 12
v -4 27 11
v -4 32 12
v -4 32 11
v -4 33 12
v -4 33 11
v -4 34 12
v -4 34 11
v -4 34 -8
v -4 34 -9
v -3 34 4
v -3 34 3
v -3 34 -0
v -3 34 -1
v -3 35 4
v -3 35 3
v -3 35 -0
v -3 35 -1
v -2 34 3
v -2 34 -0
v -2 35 3
v -2 35 2
v -2 35 1
v -2 35 -0
v 3 0 12
v 3 0 11
v 3 0 -8
v 3 0 -9
v 3 21 12
v 3 21 11
v 3 22 12
v 3 22 11
v 3 25 12
v 3 25 11
v 3 28 12
v 3 28 11
v 3 31 12
v 3 31 11
v 3 33 12
v 3 33 11
v 3 34 12
v 3 34 11
v 3 34 -8
v 3 34 -9
v 5 0 11
v 5 0 10
v 5 0 -7
v 5 0 -8
v 5 22 11
v 5 22 10
v 5 23 10
v 5 33 11
v 5 33 10
v 5 34 11
v 5 34 10
v 5 34 -7
v 5 34 -8
v 6 0 10
v 6 0 9
v 6 0 -6
v 6 0 -7
v 6 23 10
v 6 23 9
v 6 24 9
v 6 33 10
v 6 33 9
v 6 34 10
v 6 34 9
v 6 34 -6
v 6 34 -7
v 7 0 9
v 7 0 8
v 7 0 -5
v 7 0 -6
v 7 24 9
v 7 24 8
v 7 25 8
v 7 33 9
v 7 33 8
v 7 34 9
v 7 34 8
v 7 34 -5
v 7 34 -6
v 8 0 8
v 8 0 7
v 8 0 -4
v 8 0 -5
v 8 25 8
v 8 25 7
v 8 33 8
v 8 33 7
v 8 34 8
v 8 34 7
v 8 34 -4
v 8 34 -5
v 9 0 7
v 9 0 5
v 9 0 -2
v 9 0 -4
v 9 34 7
v 9 34 5
v 9 34 -2
v 9 34 -4
v 10 0 5
v 10 0 -2
v 10 34 5
v 10 34 -2
v 16 35 2
v 16 35 1
v 16 36 3
v 16 36 2
v 16 38 3
v 16 38 1
v -4 0 12
v -4 21 12
v -4 22 12
v -4 24 12
v -4 27 12
v -4 32 12
v -4 33 12
v -4 34 12
v -3 23 12
v -3 24 12
v -3 25 12
v -3 27 12
v -3 28 12
v -3 29 12
v -3 32 12
v -2 21 12
v -2 22 12
v -2 24 12
v -2 25 12
v -2 26 12
v -2 27 12
v -2 28 12
v -2 29 12
v -2 32 12
v -1 21 12
v -1 23 12
v -1 25 12
v -1 26 12
v -1 27 12
v -1 32 12
v 0 22 12
v 0 25 12
v 0 27 12
v 0 32 12
v 1 21 12
v 1 22 12
v 1 25 12
v 1 26 12
v 1 28 12
v 1 31 12
v 2 21 12
v 2 22 12
v 2 25 12
v 2 26 12
v 2 27 12
v 2 28 12
v 2 31 12
v 2 32 12
v 3 0 12
v 3 21 12
v 3 22 12
v 3 25 12
v 3 28 12
v 3 31 12
v 3 33 12
v 3 34 12
v -6 0 11
v -6 22 11
v -6 33 11
v -6 34 11
v -4 0 11
v -4 21 11
v -4 22 11
v -4 24 11
v -4 27 11
v -4 32 11
v -4 33 11
v -4 34 11
v 3 0 11
v 3 21 11
v 3 22 11
v 3 25 11
v 3 28 11
v 3 31 11
v 3 33 11
v 3 34 11
v 5 0 11
v 5 22 11
v 5 33 11
v 5 34 11
v -7 0 10
v -7 23 10
v -7 33 10
v -7 34 10
v -6 0 10
v -6 22 10
v -6 23 10
v -6 33 10
v -6 34 10
v 5 0 10
v 5 22 10
v 5 23 10
v 5 33 10
v 5 34 10
v 6 0 10
v 6 23 10
v 6 33 10
v 6 34 10
v -8 0 9
v -8 24 9
v -8 33 9
v -8 34 9
v -7 0 9
v -7 23 9
v -7 24 9
v -7 33 9
v -7 34 9
v 6 0 9
v 6 23 9
v 6 24 9
v 6 33 9
v 6 34 9
v 7 0 9
v 7 24 9
v 7 33 9
v 7 34 9
v -9 0 8
v -9 25 8
v -9 33 8
v -9 34 8
v -8 0 8
v -8 24 8
v -8 25 8
v -8 33 8
v -8 34 8
v 7 0 8
v 7 24 8
v 7 25 8
v 7 33 8
v 7 34 8
v 8 0 8
v 8 25 8
v 8 33 8
v 8 34 8
v -10 0 7
v -10 34 7
v -9 0 7
v -9 25 7
v -9 33 7
v -9 34 7
v 8 0 7
v 8 25 7
v 8 33 7
v 8 34 7
v 9 0 7
v 9 34 7
v -11 0 5
v -11 34 5
v -10 0 5
v -10 34 5
v 9 0 5
v 9 34 5
v 10 0 5
v 10 34 5
v -6 34 4
v -6 35 4
v -3 34 4
v -3 35 4
v -7 34 3
v -7 35 3
v -6 34 3
v -6 35 3
v -5 36 3
v -5 38 3
v -3 34 3
v -3 35 3
v -2 34 3
v -2 35 3
v 16 36 3
v 16 38 3
v -6 35 2
v -6 36 2
v -5 36 2
v -2 35 2
v 16 35 2
v 16 36 2
v -6 35 1
v -6 36 1
v -5 36 1
v -5 38 1
v -2 35 1
v 16 35 1
v 16 38 1
v -7 34 -0
v -7 35 -0
v -6 34 -0
v -6 35 -0
v -3 34 -0
v -3 35 -0
v -2 34 -0
v -2 35 -0
v -6 34 -1
v -6 35 -1
v -3 34 -1
v -3 35 -1
v -11 0 -2
v -11 34 -2
v -10 0 -2
v -10 34 -2
v 9 0 -2
v 9 34 -2
v 10 0 -2
v 10 34 -2
v -10 0 -4
v -10 34 -4
v -9 0 -4
v -9 34 -4
v 8 0 -4
v 8 34 -4
v 9 0 -4
v 9 34 -4
v -9 0 -5
v -9 34 -5
v -8 0 -5
v -8 34 -5
v 7 0 -5
v 7 34 -5
v 8 0 -5
v 8 34 -5
v -8 0 -6
v -8 34 -6
v -7 0 -6
v -7 34 -6
v 6 0 -6
v 6 34 -6
v 7 0 -6
v 7 34 -6
v -7 0 -7
v -7 34 -7
v -6 0 -7
v -6 34 -7
v 5 0 -7
v 5 34 -7
v 6 0 -7
v 6 34 -7
v -6 0 -8
v -6 34 -8
v -4 0 -8
v -4 34 -8
v 3 0 -8
v 3 34 -8
v 5 0 -8
v 5 34 -8
v -4 0 -9
v -4 34 -9
v 3 0 -9
v 3 34 -9
v -4 0 12
v 3 0 12
v -6 0 11
v -4 0 11
v 3 0 11
v 5 0 11
v -7 0 10
v -6 0 10
v 5 0 10
v 6 0 10
v -8 0 9
v -7 0 9
v 6 0 9
v 7 0 9
v -9 0 8
v -8 0 8
v 7 0 8
v 8 0 8
v -10 0 7
v -9 0 7
v 8 0 7
v 9 0 7
v -11 0 5
v -10 0 5
v 9 0 5
v 10 0 5
v -11 0 -2
v -10 0 -2
v 9 0 -2
v 10 0 -2
v -10 0 -4
v -9 0 -4
v 8 0 -4
v 9 0 -4
v -9 0 -5
v -8 0 -5
v 7 0 -5
v 8 0 -5
v -8 0 -6
v -7 0 -6
v 6 0 -6
v 7 0 -6
v -7 0 -7
v -6 0 -7
v 5 0 -7
v 6 0 -7
v -6 0 -8
v -4 0 -8
v 3 0 -8
v 5 0 -8
v -4 0 -9
v 3 0 -9
v -2 35 2
v 16 35 2
v -2 35 1
v 16 35 1
v -5 36 3
v 16 36 3
v -5 36 2
v 16 36 2
v -4 34 12
v 3 34 12
v -6 34 11
v -4 34 11
v 3 34 11
v 5 34 11
v -7 34 10
v -6 34 10
v 5 34 10
v 6 34 10
v -8 34 9
v -7 34 9
v 6 34 9
v 7 34 9
v -9 34 8
v -8 34 8
v 7 34 8
v 8 34 8
v -10 34 7
v -9 34 7
v 8 34 7
v 9 34 7
v -11 34 5
v -10 34 5
v 9 34 5
v 10 34 5
v -6 34 4
v -3 34 4
v -7 34 3
v -6 34 3
v -3 34 3
v -2 34 3
v -7 34 -0
v -6 34 -0
v -3 34 -0
v -2 34 -0
v -6 34 -1
v -3 34 -1
v -11 34 -2
v -10 34 -2
v 9 34 -2
v 10 34 -2
v -10 34 -4
v -9 34 -4
v 8 34 -4
v 9 34 -4
v -9 34 -5
v -8 34 -5
v 7 34 -5
v 8 34 -5
v -8 34 -6
v -7 34 -6
v 6 34 -6
v 7 34 -6
v -7 34 -7
v -6 34 -7
v 5 34 -7
v 6 34 -7
v -6 34 -8
v -4 34 -8
v 3 34 -8
v 5 34 -8
v -4 34 -9
v 3 34 -9
v -6 35 4
v -3 35 4
v -7 35 3
v -6 35 3
v -3 35 3
v -2 35 3
v -6 35 2
v -2 35 2
v -6 35 1
v -2 35 1
v -7 35 -0
v -6 35 -0
v -3 35 -0
v -2 35 -0
v -6 35 -1
v -3 35 -1
v -6 36 2
v -5 36 2
v -6 36 1
v -5 36 1
v -5 38 3
v 16 38 3
v -5 38 1
v 16 38 1

# faces
f 3/2/1 2/2/1 1/2/1
f 4/2/1 2/2/1 3/2/1
f 9/2/1 6/2/1 5/2/1
f 10/2/1 6/2/1 9/2/1
f 11/2/1 8/2/1 7/2/1
f 12/2/1 8/2/1 11/2/1
f 17/2/1 14/2/1 13/2/1
f 18/2/1 14/2/1 17/2/1
f 19/1/1 18/1/1 17/1/1
f 20/1/1 18/1/1 19/1/1
f 21/2/1 20/2/1 19/2/1
f 22/2/1 20/2/1 21/2/1
f 23/2/1 16/2/1 15/2/1
f 24/2/1 16/2/1 23/2/1
f 29/2/1 26/2/1 25/2/1
f 30/2/1 26/2/1 29/2/1
f 31/1/1 30/1/1 29/1/1
f 32/1/1 31/1/1 29/1/1
f 33/1/1 31/1/1 32/1/1
f 34/2/1 33/2/1 32/2/1
f 35/2/1 33/2/1 34/2/1
f 36/2/1 28/2/1 27/2/1
f 37/2/1 28/2/1 36/2/1
f 42/2/1 39/2/1 38/2/1
f 43/2/1 39/2/1 42/2/1
f 44/1/1 43/1/1 42/1/1
f 45/1/1 44/1/1 42/1/1
f 46/1/1 44/1/1 45/1/1
f 47/2/1 46/2/1 45/2/1
f 48/2/1 46/2/1 47/2/1
f 51/2/1 41/2/1 40/2/1
f 52/2/1 41/2/1 51/2/1
f 53/1/1 50/1/1 49/1/1
f 54/1/1 50/1/1 53/1/1
f 59/2/1 56/2/1 55/2/1
f 60/2/1 56/2/1 59/2/1
f 61/1/1 60/1/1 59/1/1
f 62/1/1 61/1/1 59/1/1
f 63/1/1 61/1/1 62/1/1
f 64/2/1 63/2/1 62/2/1
f 65/2/1 63/2/1 64/2/1
f 70/2/1 58/2/1 57/2/1
f 71/2/1 58/2/1 70/2/1
f 72/1/1 67/1/1 66/1/1
f 73/1/1 67/1/1 72/1/1
f 76/1/1 69/1/1 68/1/1
f 77/1/1 69/1/1 76/1/1
f 78/1/1 75/1/1 74/1/1
f 79/1/1 75/1/1 78/1/1
f 83/1/1 81/1/1 80/1/1
f 83/1/1 82/1/1 81/1/1
f 84/1/1 82/1/1 83/1/1
f 89/2/1 86/2/1 85/2/1
f 90/2/1 86/2/1 89/2/1
f 91/1/1 90/1/1 89/1/1
f 92/1/1 90/1/1 91/1/1
f 93/2/1 92/2/1 91/2/1
f 94/2/1 92/2/1 93/2/1
f 95/1/1 94/1/1 93/1/1
f 96/1/1 94/1/1 95/1/1
f 97/2/1 96/2/1 95/2/1
f 98/2/1 96/2/1 97/2/1
f 99/1/1 98/1/1 97/1/1
f 100/1/1 98/1/1 99/1/1
f 101/2/1 100/2/1 99/2/1
f 102/2/1 100/2/1 101/2/1
f 103/2/1 88/2/1 87/2/1
f 104/2/1 88/2/1 103/2/1
f 105/1/2 106/1/2 109/1/2
f 109/1/2 106/1/2 110/1/2
f 107/1/2 108/1/2 111/1/2
f 111/1/2 108/1/2 112/1/2
f 113/1/2 114/1/2 115/1/2
f 115/1/2 114/1/2 116/1/2
f 116/1/2 114/1/2 117/1/2
f 117/1/2 114/1/2 118/1/2
f 119/2/2 120/2/2 123/2/2
f 123/2/2 120/2/2 124/2/2
f 123/1/2 124/1/2 125/1/2
f 125/1/2 124/1/2 126/1/2
f 125/2/2 126/2/2 127/2/2
f 127/2/2 126/2/2 128/2/2
f 127/1/2 128/1/2 129/1/2
f 129/1/2 128/1/2 130/1/2
f 129/2/2 130/2/2 131/2/2
f 131/2/2 130/2/2 132/2/2
f 131/1/2 132/1/2 133/1/2
f 133/1/2 132/1/2 134/1/2
f 133/2/2 134/2/2 135/2/2
f 135/2/2 134/2/2 136/2/2
f 121/2/2 122/2/2 137/2/2
f 137/2/2 122/2/2 138/2/2
f 139/2/2 140/2/2 143/2/2
f 143/2/2 140/2/2 144/2/2
f 143/1/2 144/1/2 145/1/2
f 143/1/2 145/1/2 146/1/2
f 146/1/2 145/1/2 147/1/2
f 146/2/2 147/2/2 148/2/2
f 148/2/2 147/2/2 149/2/2
f 141/2/2 142/2/2 150/2/2
f 150/2/2 142/2/2 151/2/2
f 152/2/2 153/2/2 156/2/2
f 156/2/2 153/2/2 157/2/2
f 156/1/2 157/1/2 158/1/2
f 156/1/2 158/1/2 159/1/2
f 159/1/2 158/1/2 160/1/2
f 159/2/2 160/2/2 161/2/2
f 161/2/2 160/2/2 162/2/2
f 154/2/2 155/2/2 163/2/2
f 163/2/2 155/2/2 164/2/2
f 165/2/2 166/2/2 169/2/2
f 169/2/2 166/2/2 170/2/2
f 169/1/2 170/1/2 171/1/2
f 169/1/2 171/1/2 172/1/2
f 172/1/2 171/1/2 173/1/2
f 172/2/2 173/2/2 174/2/2
f 174/2/2 173/2/2 175/2/2
f 167/2/2 168/2/2 176/2/2
f 176/2/2 168/2/2 177/2/2
f 178/2/2 179/2/2 182/2/2
f 182/2/2 179/2/2 183/2/2
f 182/1/2 183/1/2 184/1/2
f 184/1/2 183/1/2 185/1/2
f 184/2/2 185/2/2 186/2/2
f 186/2/2 185/2/2 187/2/2
f 180/2/2 181/2/2 188/2/2
f 188/2/2 181/2/2 189/2/2
f 190/2/2 191/2/2 194/2/2
f 194/2/2 191/2/2 195/2/2
f 192/2/2 193/2/2 196/2/2
f 196/2/2 193/2/2 197/2/2
f 198/2/2 199/2/2 200/2/2
f 200/2/2 199/2/2 201/2/2
f 202/1/2 203/1/2 205/1/2
f 204/1/2 205/1/2 206/1/2
f 205/1/2 203/1/2 207/1/2
f 206/1/2 205/1/2 207/1/2
f 216/2/3 211/2/3 210/2/3
f 217/1/3 212/1/3 211/1/3
f 217/2/3 211/2/3 216/2/3
f 218/1/3 212/1/3 217/1/3
f 219/2/3 213/2/3 212/2/3
f 219/1/3 212/1/3 218/1/3
f 220/2/3 213/2/3 219/2/3
f 221/2/3 213/2/3 220/2/3
f 222/1/3 214/1/3 213/1/3
f 222/2/3 213/2/3 221/2/3
f 223/2/3 209/2/3 208/2/3
f 223/1/3 210/1/3 209/1/3
f 224/2/3 216/2/3 210/2/3
f 224/1/3 210/1/3 223/1/3
f 225/2/3 218/2/3 217/2/3
f 225/1/3 217/1/3 216/1/3
f 226/1/3 219/1/3 218/1/3
f 226/2/3 218/2/3 225/2/3
f 226/1/3 220/1/3 219/1/3
f 227/1/3 220/1/3 226/1/3
f 228/1/3 220/1/3 227/1/3
f 229/2/3 221/2/3 220/2/3
f 229/1/3 220/1/3 228/1/3
f 230/1/3 222/1/3 221/1/3
f 230/2/3 221/2/3 229/2/3
f 231/1/3 214/1/3 222/1/3
f 231/1/3 222/1/3 230/1/3
f 232/2/3 223/2/3 208/2/3
f 232/2/3 224/2/3 223/2/3
f 233/2/3 216/2/3 224/2/3
f 233/2/3 224/2/3 232/2/3
f 233/1/3 225/1/3 216/1/3
f 233/1/3 226/1/3 225/1/3
f 234/2/3 227/2/3 226/2/3
f 234/1/3 226/1/3 233/1/3
f 235/1/3 228/1/3 227/1/3
f 235/2/3 227/2/3 234/2/3
f 236/2/3 230/2/3 229/2/3
f 236/1/3 228/1/3 235/1/3
f 236/2/3 229/2/3 228/2/3
f 236/2/3 231/2/3 230/2/3
f 237/1/3 214/1/3 231/1/3
f 237/2/3 231/2/3 236/2/3
f 238/1/3 235/1/3 234/1/3
f 238/1/3 233/1/3 232/1/3
f 238/1/3 237/1/3 236/1/3
f 238/1/3 234/1/3 233/1/3
f 238/1/3 236/1/3 235/1/3
f 239/1/3 237/1/3 238/1/3
f 240/1/3 237/1/3 239/1/3
f 241/1/3 214/1/3 237/1/3
f 241/1/3 237/1/3 240/1/3
f 242/2/3 232/2/3 208/2/3
f 242/1/3 238/1/3 232/1/3
f 243/2/3 239/2/3 238/2/3
f 243/1/3 238/1/3 242/1/3
f 244/1/3 240/1/3 239/1/3
f 244/2/3 239/2/3 243/2/3
f 245/1/3 240/1/3 244/1/3
f 246/2/3 241/2/3 240/2/3
f 247/2/3 241/2/3 246/2/3
f 248/2/3 243/2/3 242/2/3
f 248/2/3 242/2/3 208/2/3
f 249/1/3 244/1/3 243/1/3
f 249/2/3 243/2/3 248/2/3
f 250/2/3 245/2/3 244/2/3
f 250/1/3 244/1/3 249/1/3
f 251/1/3 240/1/3 245/1/3
f 251/2/3 245/2/3 250/2/3
f 252/2/3 246/2/3 240/2/3
f 252/1/3 240/1/3 251/1/3
f 253/1/3 247/1/3 246/1/3
f 253/2/3 246/2/3 252/2/3
f 254/2/3 241/2/3 247/2/3
f 254/1/3 247/1/3 253/1/3
f 255/1/3 214/1/3 241/1/3
f 255/2/3 241/2/3 254/2/3
f 256/2/3 248/2/3 208/2/3
f 257/1/3 249/1/3 248/1/3
f 257/2/3 248/2/3 256/2/3
f 258/2/3 250/2/3 249/2/3
f 258/1/3 249/1/3 257/1/3
f 259/1/3 253/1/3 252/1/3
f 259/2/3 250/2/3 258/2/3
f 259/1/3 252/1/3 251/1/3
f 259/1/3 251/1/3 250/1/3
f 260/2/3 254/2/3 253/2/3
f 260/1/3 253/1/3 259/1/3
f 261/1/3 255/1/3 254/1/3
f 261/2/3 254/2/3 260/2/3
f 262/2/3 215/2/3 214/2/3
f 262/1/3 255/1/3 261/1/3
f 262/1/3 214/1/3 255/1/3
f 263/2/3 215/2/3 262/2/3
f 268/2/3 265/2/3 264/2/3
f 269/2/3 265/2/3 268/2/3
f 270/1/3 266/1/3 265/1/3
f 270/2/3 265/2/3 269/2/3
f 271/1/3 266/1/3 270/1/3
f 272/1/3 266/1/3 271/1/3
f 273/1/3 266/1/3 272/1/3
f 274/2/3 267/2/3 266/2/3
f 274/1/3 266/1/3 273/1/3
f 275/2/3 267/2/3 274/2/3
f 284/2/3 277/2/3 276/2/3
f 284/2/3 278/2/3 277/2/3
f 285/1/3 282/1/3 281/1/3
f 285/2/3 278/2/3 284/2/3
f 285/1/3 279/1/3 278/1/3
f 285/1/3 281/1/3 280/1/3
f 285/1/3 280/1/3 279/1/3
f 286/2/3 283/2/3 282/2/3
f 286/1/3 282/1/3 285/1/3
f 287/2/3 283/2/3 286/2/3
f 292/2/3 289/2/3 288/2/3
f 293/2/3 289/2/3 292/2/3
f 294/1/3 290/1/3 289/1/3
f 294/2/3 289/2/3 293/2/3
f 295/2/3 291/2/3 290/2/3
f 295/1/3 290/1/3 294/1/3
f 296/2/3 291/2/3 295/2/3
f 302/2/3 298/2/3 297/2/3
f 302/2/3 299/2/3 298/2/3
f 303/1/3 300/1/3 299/1/3
f 303/2/3 299/2/3 302/2/3
f 304/2/3 301/2/3 300/2/3
f 304/1/3 300/1/3 303/1/3
f 305/2/3 301/2/3 304/2/3
f 310/2/3 307/2/3 306/2/3
f 311/2/3 307/2/3 310/2/3
f 312/1/3 308/1/3 307/1/3
f 312/2/3 307/2/3 311/2/3
f 313/2/3 309/2/3 308/2/3
f 313/1/3 308/1/3 312/1/3
f 314/2/3 309/2/3 313/2/3
f 320/2/3 316/2/3 315/2/3
f 320/2/3 317/2/3 316/2/3
f 321/1/3 318/1/3 317/1/3
f 321/2/3 317/2/3 320/2/3
f 322/2/3 319/2/3 318/2/3
f 322/1/3 318/1/3 321/1/3
f 323/2/3 319/2/3 322/2/3
f 328/2/3 325/2/3 324/2/3
f 329/2/3 325/2/3 328/2/3
f 330/1/3 326/1/3 325/1/3
f 330/2/3 325/2/3 329/2/3
f 331/2/3 327/2/3 326/2/3
f 331/1/3 326/1/3 330/1/3
f 332/2/3 327/2/3 331/2/3
f 338/2/3 334/2/3 333/2/3
f 338/2/3 335/2/3 334/2/3
f 339/1/3 336/1/3 335/1/3
f 339/2/3 335/2/3 338/2/3
f 340/2/3 337/2/3 336/2/3
f 340/1/3 336/1/3 339/1/3
f 341/2/3 337/2/3 340/2/3
f 344/2/3 343/2/3 342/2/3
f 345/2/3 343/2/3 344/2/3
f 346/2/3 343/2/3 345/2/3
f 347/2/3 343/2/3 346/2/3
f 352/2/3 349/2/3 348/2/3
f 352/2/3 351/2/3 350/2/3
f 352/2/3 350/2/3 349/2/3
f 353/2/3 351/2/3 352/2/3
f 356/2/3 355/2/3 354/2/3
f 357/2/3 355/2/3 356/2/3
f 360/2/3 359/2/3 358/2/3
f 361/2/3 359/2/3 360/2/3
f 364/1/3 363/1/3 362/1/3
f 365/1/3 363/1/3 364/1/3
f 368/1/3 367/1/3 366/1/3
f 369/1/3 367/1/3 368/1/3
f 374/1/3 373/1/3 372/1/3
f 375/1/3 373/1/3 374/1/3
f 376/1/3 371/1/3 370/1/3
f 377/1/3 371/1/3 376/1/3
f 380/1/3 379/1/3 378/1/3
f 381/1/3 380/1/3 378/1/3
f 382/1/3 380/1/3 381/1/3
f 383/1/3 380/1/3 382/1/3
f 384/1/4 385/1/4 386/1/4
f 384/1/4 386/1/4 388/1/4
f 386/1/4 387/1/4 388/1/4
f 388/1/4 387/1/4 389/1/4
f 389/1/4 387/1/4 390/1/4
f 391/1/4 392/1/4 393/1/4
f 393/1/4 392/1/4 394/1/4
f 395/1/4 396/1/4 397/1/4
f 397/1/4 396/1/4 398/1/4
f 399/1/4 400/1/4 401/1/4
f 401/1/4 400/1/4 402/1/4
f 403/2/4 404/2/4 405/2/4
f 405/2/4 404/2/4 406/2/4
f 407/2/4 408/2/4 409/2/4
f 409/2/4 408/2/4 410/2/4
f 411/2/4 412/2/4 413/2/4
f 413/2/4 412/2/4 414/2/4
f 415/2/4 416/2/4 417/2/4
f 417/2/4 416/2/4 418/2/4
f 419/2/4 420/2/4 421/2/4
f 421/2/4 420/2/4 422/2/4
f 423/2/4 424/2/4 425/2/4
f 425/2/4 424/2/4 426/2/4
f 427/2/4 428/2/4 429/2/4
f 429/2/4 428/2/4 430/2/4
f 431/2/4 432/2/4 433/2/4
f 433/2/4 432/2/4 434/2/4
f 435/2/4 436/2/4 437/2/4
f 437/2/4 436/2/4 438/2/4
f 439/2/4 440/2/4 441/2/4
f 441/2/4 440/2/4 442/2/4
f 443/2/4 444/2/4 445/2/4
f 445/2/4 444/2/4 446/2/4
f 447/2/4 448/2/4 449/2/4
f 449/2/4 448/2/4 450/2/4
f 451/2/4 452/2/4 453/2/4
f 453/2/4 452/2/4 454/2/4
f 458/2/5 456/2/5 455/2/5
f 459/2/5 456/2/5 458/2/5
f 462/2/5 458/2/5 457/2/5
f 462/2/5 460/2/5 459/2/5
f 462/2/5 459/2/5 458/2/5
f 463/2/5 460/2/5 462/2/5
f 466/2/5 462/2/5 461/2/5
f 466/2/5 464/2/5 463/2/5
f 466/2/5 463/2/5 462/2/5
f 467/2/5 464/2/5 466/2/5
f 470/2/5 466/2/5 465/2/5
f 470/2/5 468/2/5 467/2/5
f 470/2/5 467/2/5 466/2/5
f 471/2/5 468/2/5 470/2/5
f 474/2/5 470/2/5 469/2/5
f 474/2/5 472/2/5 471/2/5
f 474/2/5 471/2/5 470/2/5
f 475/2/5 472/2/5 474/2/5
f 478/2/5 474/2/5 473/2/5
f 478/2/5 476/2/5 475/2/5
f 478/2/5 475/2/5 474/2/5
f 479/2/5 476/2/5 478/2/5
f 481/2/5 478/2/5 477/2/5
f 481/2/5 480/2/5 479/2/5
f 481/2/5 479/2/5 478/2/5
f 482/2/5 480/2/5 481/2/5
f 483/2/5 480/2/5 482/2/5
f 484/2/5 480/2/5 483/2/5
f 485/2/5 483/2/5 482/2/5
f 486/2/5 483/2/5 485/2/5
f 487/2/5 483/2/5 486/2/5
f 488/2/5 483/2/5 487/2/5
f 489/2/5 487/2/5 486/2/5
f 490/2/5 487/2/5 489/2/5
f 491/2/5 487/2/5 490/2/5
f 492/2/5 487/2/5 491/2/5
f 493/2/5 491/2/5 490/2/5
f 494/2/5 491/2/5 493/2/5
f 495/2/5 491/2/5 494/2/5
f 496/2/5 491/2/5 495/2/5
f 497/2/5 495/2/5 494/2/5
f 498/2/5 495/2/5 497/2/5
f 499/2/5 495/2/5 498/2/5
f 500/2/5 495/2/5 499/2/5
f 501/2/5 499/2/5 498/2/5
f 502/2/5 499/2/5 501/2/5
f 503/2/5 499/2/5 502/2/5
f 504/2/5 499/2/5 503/2/5
f 505/2/5 503/2/5 502/2/5
f 506/2/5 503/2/5 505/2/5
f 509/1/5 508/1/5 507/1/5
f 510/1/5 508/1/5 509/1/5
f 513/1/5 512/1/5 511/1/5
f 514/1/5 512/1/5 513/1/5
f 515/2/6 516/2/6 518/2/6
f 518/2/6 516/2/6 519/2/6
f 517/2/6 518/2/6 522/2/6
f 519/2/6 520/2/6 522/2/6
f 518/2/6 519/2/6 522/2/6
f 522/2/6 520/2/6 523/2/6
f 521/2/6 522/2/6 526/2/6
f 523/2/6 524/2/6 526/2/6
f 522/2/6 523/2/6 526/2/6
f 526/2/6 524/2/6 527/2/6
f 525/2/6 526/2/6 530/2/6
f 527/2/6 528/2/6 530/2/6
f 526/2/6 527/2/6 530/2/6
f 530/2/6 528/2/6 531/2/6
f 529/2/6 530/2/6 534/2/6
f 531/2/6 532/2/6 534/2/6
f 530/2/6 531/2/6 534/2/6
f 534/2/6 532/2/6 535/2/6
f 533/2/6 534/2/6 538/2/6
f 535/2/6 536/2/6 538/2/6
f 534/2/6 535/2/6 538/2/6
f 538/2/6 536/2/6 539/2/6
f 537/2/6 538/2/6 541/2/6
f 539/2/6 540/2/6 541/2/6
f 538/2/6 539/2/6 541/2/6
f 541/2/6 540/2/6 542/2/6
f 537/2/6 541/2/6 543/2/6
f 543/2/6 541/2/6 544/2/6
f 542/2/6 540/2/6 545/2/6
f 545/2/6 540/2/6 546/2/6
f 537/2/6 543/2/6 547/2/6
f 546/2/6 540/2/6 550/2/6
f 547/2/6 548/2/6 551/2/6
f 549/2/6 550/2/6 552/2/6
f 547/2/6 551/2/6 553/2/6
f 551/2/6 552/2/6 553/2/6
f 537/2/6 547/2/6 553/2/6
f 553/2/6 552/2/6 554/2/6
f 552/2/6 550/2/6 555/2/6
f 554/2/6 552/2/6 555/2/6
f 550/2/6 540/2/6 555/2/6
f 555/2/6 540/2/6 556/2/6
f 554/2/6 555/2/6 557/2/6
f 557/2/6 555/2/6 558/2/6
f 558/2/6 555/2/6 559/2/6
f 559/2/6 555/2/6 560/2/6
f 558/2/6 559/2/6 561/2/6
f 561/2/6 559/2/6 562/2/6
f 562/2/6 559/2/6 563/2/6
f 563/2/6 559/2/6 564/2/6
f 562/2/6 563/2/6 565/2/6
f 565/2/6 563/2/6 566/2/6
f 566/2/6 563/2/6 567/2/6
f 567/2/6 563/2/6 568/2/6
f 566/2/6 567/2/6 569/2/6
f 569/2/6 567/2/6 570/2/6
f 570/2/6 567/2/6 571/2/6
f 571/2/6 567/2/6 572/2/6
f 570/2/6 571/2/6 573/2/6
f 573/2/6 571/2/6 574/2/6
f 574/2/6 571/2/6 575/2/6
f 575/2/6 571/2/6 576/2/6
f 574/2/6 575/2/6 577/2/6
f 577/2/6 575/2/6 578/2/6
f 579/1/6 580/1/6 582/1/6
f 582/1/6 580/1/6 583/1/6
f 581/1/6 582/1/6 585/1/6
f 583/1/6 584/1/6 585/1/6
f 582/1/6 583/1/6 585/1/6
f 585/1/6 584/1/6 586/1/6
f 581/1/6 585/1/6 587/1/6
f 581/1/6 587/1/6 589/1/6
f 587/1/6 588/1/6 589/1/6
f 589/1/6 588/1/6 590/1/6
f 590/1/6 588/1/6 591/1/6
f 591/1/6 588/1/6 592/1/6
f 590/1/6 591/1/6 593/1/6
f 593/1/6 591/1/6 594/1/6
f 595/1/6 596/1/6 597/1/6
f 597/1/6 596/1/6 598/1/6
f 599/1/6 600/1/6 601/1/6
f 601/1/6 600/1/6 602/1/6
