# MagicaVoxel @ Ephtracy

# material
mtllib window.mtl
usemtl palette

# normals
vn -1 0 0
vn 1 0 0
vn 0 0 1
vn 0 0 -1
vn 0 -1 0
vn 0 1 0

# texcoords
vt 0.0332031 0.5
vt 0.310547 0.5
vt 0.404297 0.5

# verts
v -1.5 7 -8
v -1.5 7 -9
v -1.5 28 8
v -1.5 28 -8
v -1.5 29 8
v -1.5 29 -8
v -1.5 44 8
v -1.5 44 -8
v -1.5 45 8
v -1.5 45 -8
v -1.5 61 8
v -1.5 61 -8
v -1.5 62 8
v -1.5 62 -8
v -1.5 85 -8
v -1.5 85 -9
v -0.5 7 8
v -0.5 7 -8
v -0.5 28 8
v -0.5 28 -8
v -0.5 29 8
v -0.5 29 -8
v -0.5 44 8
v -0.5 44 -8
v -0.5 45 8
v -0.5 45 -8
v -0.5 61 8
v -0.5 61 -8
v -0.5 62 8
v -0.5 62 -8
v -0.5 72 8
v -0.5 72 7
v -0.5 75 7
v -0.5 75 6
v -0.5 77 6
v -0.5 77 4
v -0.5 79 4
v -0.5 79 3
v -0.5 80 3
v -0.5 80 2
v -0.5 81 2
v -0.5 81 1
v -0.5 82 1
v -0.5 82 -0
v -0.5 83 -0
v -0.5 83 -2
v -0.5 84 -2
v -0.5 84 -5
v -0.5 85 -5
v -0.5 85 -8
v 0.5 7 8
v 0.5 7 -8
v 0.5 28 8
v 0.5 28 -8
v 0.5 29 8
v 0.5 29 -8
v 0.5 44 8
v 0.5 44 -8
v 0.5 45 8
v 0.5 45 -8
v 0.5 61 8
v 0.5 61 -8
v 0.5 62 8
v 0.5 62 -8
v 0.5 72 8
v 0.5 72 7
v 0.5 75 7
v 0.5 75 6
v 0.5 77 6
v 0.5 77 4
v 0.5 79 4
v 0.5 79 3
v 0.5 80 3
v 0.5 80 2
v 0.5 81 2
v 0.5 81 1
v 0.5 82 1
v 0.5 82 -0
v 0.5 83 -0
v 0.5 83 -2
v 0.5 84 -2
v 0.5 84 -5
v 0.5 85 -5
v 0.5 85 -8
v 1.5 7 -8
v 1.5 7 -9
v 1.5 28 8
v 1.5 28 -8
v 1.5 29 8
v 1.5 29 -8
v 1.5 44 8
v 1.5 44 -8
v 1.5 45 8
v 1.5 45 -8
v 1.5 61 8
v 1.5 61 -8
v 1.5 62 8
v 1.5 62 -8
v 1.5 85 -8
v 1.5 85 -9
v -1.5 28 8
v -1.5 29 8
v -1.5 44 8
v -1.5 45 8
v -1.5 61 8
v -1.5 62 8
v -0.5 7 8
v -0.5 28 8
v -0.5 29 8
v -0.5 44 8
v -0.5 45 8
v -0.5 61 8
v -0.5 62 8
v -0.5 72 8
v 0.5 7 8
v 0.5 28 8
v 0.5 29 8
v 0.5 44 8
v 0.5 45 8
v 0.5 61 8
v 0.5 62 8
v 0.5 72 8
v 1.5 28 8
v 1.5 29 8
v 1.5 44 8
v 1.5 45 8
v 1.5 61 8
v 1.5 62 8
v -0.5 72 7
v -0.5 75 7
v 0.5 72 7
v 0.5 75 7
v -0.5 75 6
v -0.5 77 6
v 0.5 75 6
v 0.5 77 6
v -0.5 77 4
v -0.5 79 4
v 0.5 77 4
v 0.5 79 4
v -0.5 79 3
v -0.5 80 3
v 0.5 79 3
v 0.5 80 3
v -0.5 80 2
v -0.5 81 2
v 0.5 80 2
v 0.5 81 2
v -0.5 81 1
v -0.5 82 1
v 0.5 81 1
v 0.5 82 1
v -0.5 82 -0
v -0.5 83 -0
v 0.5 82 -0
v 0.5 83 -0
v -0.5 83 -2
v -0.5 84 -2
v 0.5 83 -2
v 0.5 84 -2
v -0.5 84 -5
v -0.5 85 -5
v 0.5 84 -5
v 0.5 85 -5
v -1.5 7 -8
v -1.5 28 -8
v -1.5 29 -8
v -1.5 44 -8
v -1.5 45 -8
v -1.5 61 -8
v -1.5 62 -8
v -1.5 85 -8
v -0.5 7 -8
v -0.5 28 -8
v -0.5 29 -8
v -0.5 44 -8
v -0.5 45 -8
v -0.5 61 -8
v -0.5 62 -8
v -0.5 85 -8
v 0.5 7 -8
v 0.5 28 -8
v 0.5 29 -8
v 0.5 44 -8
v 0.5 45 -8
v 0.5 61 -8
v 0.5 62 -8
v 0.5 85 -8
v 1.5 7 -8
v 1.5 28 -8
v 1.5 29 -8
v 1.5 44 -8
v 1.5 45 -8
v 1.5 61 -8
v 1.5 62 -8
v 1.5 85 -8
v -1.5 7 -9
v -1.5 85 -9
v 1.5 7 -9
v 1.5 85 -9
v -0.5 7 8
v 0.5 7 8
v -1.5 7 -8
v -0.5 7 -8
v 0.5 7 -8
v 1.5 7 -8
v -1.5 7 -9
v 1.5 7 -9
v -1.5 28 8
v -0.5 28 8
v 0.5 28 8
v 1.5 28 8
v -1.5 28 -8
v -0.5 28 -8
v 0.5 28 -8
v 1.5 28 -8
v -1.5 44 8
v -0.5 44 8
v 0.5 44 8
v 1.5 44 8
v -1.5 44 -8
v -0.5 44 -8
v 0.5 44 -8
v 1.5 44 -8
v -1.5 61 8
v -0.5 61 8
v 0.5 61 8
v 1.5 61 8
v -1.5 61 -8
v -0.5 61 -8
v 0.5 61 -8
v 1.5 61 -8
v -1.5 29 8
v -0.5 29 8
v 0.5 29 8
v 1.5 29 8
v -1.5 29 -8
v -0.5 29 -8
v 0.5 29 -8
v 1.5 29 -8
v -1.5 45 8
v -0.5 45 8
v 0.5 45 8
v 1.5 45 8
v -1.5 45 -8
v -0.5 45 -8
v 0.5 45 -8
v 1.5 45 -8
v -1.5 62 8
v -0.5 62 8
v 0.5 62 8
v 1.5 62 8
v -1.5 62 -8
v -0.5 62 -8
v 0.5 62 -8
v 1.5 62 -8
v -0.5 72 8
v 0.5 72 8
v -0.5 72 7
v 0.5 72 7
v -0.5 75 7
v 0.5 75 7
v -0.5 75 6
v 0.5 75 6
v -0.5 77 6
v 0.5 77 6
v -0.5 77 4
v 0.5 77 4
v -0.5 79 4
v 0.5 79 4
v -0.5 79 3
v 0.5 79 3
v -0.5 80 3
v 0.5 80 3
v -0.5 80 2
v 0.5 80 2
v -0.5 81 2
v 0.5 81 2
v -0.5 81 1
v 0.5 81 1
v -0.5 82 1
v 0.5 82 1
v -0.5 82 -0
v 0.5 82 -0
v -0.5 83 -0
v 0.5 83 -0
v -0.5 83 -2
v 0.5 83 -2
v -0.5 84 -2
v 0.5 84 -2
v -0.5 84 -5
v 0.5 84 -5
v -0.5 85 -5
v 0.5 85 -5
v -1.5 85 -8
v -0.5 85 -8
v 0.5 85 -8
v 1.5 85 -8
v -1.5 85 -9
v 1.5 85 -9

# faces
f 4/1/1 2/1/1 1/1/1
f 5/1/1 4/1/1 3/1/1
f 6/1/1 2/1/1 4/1/1
f 6/1/1 4/1/1 5/1/1
f 8/1/1 2/1/1 6/1/1
f 9/1/1 8/1/1 7/1/1
f 10/1/1 2/1/1 8/1/1
f 10/1/1 8/1/1 9/1/1
f 12/1/1 2/1/1 10/1/1
f 13/1/1 12/1/1 11/1/1
f 14/1/1 2/1/1 12/1/1
f 14/1/1 12/1/1 13/1/1
f 15/1/1 2/1/1 14/1/1
f 16/1/1 2/1/1 15/1/1
f 19/2/1 18/2/1 17/2/1
f 20/2/1 18/2/1 19/2/1
f 23/2/1 22/2/1 21/2/1
f 24/2/1 22/2/1 23/2/1
f 27/2/1 26/2/1 25/2/1
f 28/2/1 26/2/1 27/2/1
f 31/2/1 30/2/1 29/2/1
f 32/2/1 30/2/1 31/2/1
f 33/2/1 30/2/1 32/2/1
f 34/2/1 30/2/1 33/2/1
f 35/2/1 30/2/1 34/2/1
f 36/2/1 30/2/1 35/2/1
f 37/2/1 30/2/1 36/2/1
f 38/2/1 30/2/1 37/2/1
f 39/2/1 30/2/1 38/2/1
f 40/2/1 30/2/1 39/2/1
f 41/2/1 30/2/1 40/2/1
f 42/2/1 30/2/1 41/2/1
f 43/2/1 30/2/1 42/2/1
f 44/2/1 30/2/1 43/2/1
f 45/2/1 30/2/1 44/2/1
f 46/2/1 30/2/1 45/2/1
f 47/2/1 30/2/1 46/2/1
f 48/2/1 30/2/1 47/2/1
f 49/2/1 30/2/1 48/2/1
f 50/2/1 30/2/1 49/2/1
f 51/2/2 52/2/2 53/2/2
f 53/2/2 52/2/2 54/2/2
f 55/2/2 56/2/2 57/2/2
f 57/2/2 56/2/2 58/2/2
f 59/2/2 60/2/2 61/2/2
f 61/2/2 60/2/2 62/2/2
f 63/2/2 64/2/2 65/2/2
f 65/2/2 64/2/2 66/2/2
f 66/2/2 64/2/2 67/2/2
f 67/2/2 64/2/2 68/2/2
f 68/2/2 64/2/2 69/2/2
f 69/2/2 64/2/2 70/2/2
f 70/2/2 64/2/2 71/2/2
f 71/2/2 64/2/2 72/2/2
f 72/2/2 64/2/2 73/2/2
f 73/2/2 64/2/2 74/2/2
f 74/2/2 64/2/2 75/2/2
f 75/2/2 64/2/2 76/2/2
f 76/2/2 64/2/2 77/2/2
f 77/2/2 64/2/2 78/2/2
f 78/2/2 64/2/2 79/2/2
f 79/2/2 64/2/2 80/2/2
f 80/2/2 64/2/2 81/2/2
f 81/2/2 64/2/2 82/2/2
f 82/2/2 64/2/2 83/2/2
f 83/2/2 64/2/2 84/2/2
f 85/1/2 86/1/2 88/1/2
f 87/1/2 88/1/2 89/1/2
f 88/1/2 86/1/2 90/1/2
f 89/1/2 88/1/2 90/1/2
f 90/1/2 86/1/2 92/1/2
f 91/1/2 92/1/2 93/1/2
f 92/1/2 86/1/2 94/1/2
f 93/1/2 92/1/2 94/1/2
f 94/1/2 86/1/2 96/1/2
f 95/1/2 96/1/2 97/1/2
f 96/1/2 86/1/2 98/1/2
f 97/1/2 96/1/2 98/1/2
f 98/1/2 86/1/2 99/1/2
f 99/1/2 86/1/2 100/1/2
f 108/1/3 102/1/3 101/1/3
f 109/1/3 102/1/3 108/1/3
f 110/1/3 104/1/3 103/1/3
f 111/1/3 104/1/3 110/1/3
f 112/1/3 106/1/3 105/1/3
f 113/1/3 106/1/3 112/1/3
f 115/2/3 108/2/3 107/2/3
f 116/1/3 109/1/3 108/1/3
f 116/2/3 108/2/3 115/2/3
f 117/2/3 110/2/3 109/2/3
f 117/1/3 109/1/3 116/1/3
f 118/1/3 111/1/3 110/1/3
f 118/2/3 110/2/3 117/2/3
f 119/2/3 112/2/3 111/2/3
f 119/1/3 111/1/3 118/1/3
f 120/1/3 113/1/3 112/1/3
f 120/2/3 112/2/3 119/2/3
f 121/2/3 114/2/3 113/2/3
f 121/1/3 113/1/3 120/1/3
f 122/2/3 114/2/3 121/2/3
f 123/1/3 117/1/3 116/1/3
f 124/1/3 117/1/3 123/1/3
f 125/1/3 119/1/3 118/1/3
f 126/1/3 119/1/3 125/1/3
f 127/1/3 121/1/3 120/1/3
f 128/1/3 121/1/3 127/1/3
f 131/2/3 130/2/3 129/2/3
f 132/2/3 130/2/3 131/2/3
f 135/2/3 134/2/3 133/2/3
f 136/2/3 134/2/3 135/2/3
f 139/2/3 138/2/3 137/2/3
f 140/2/3 138/2/3 139/2/3
f 143/2/3 142/2/3 141/2/3
f 144/2/3 142/2/3 143/2/3
f 147/2/3 146/2/3 145/2/3
f 148/2/3 146/2/3 147/2/3
f 151/2/3 150/2/3 149/2/3
f 152/2/3 150/2/3 151/2/3
f 155/2/3 154/2/3 153/2/3
f 156/2/3 154/2/3 155/2/3
f 159/2/3 158/2/3 157/2/3
f 160/2/3 158/2/3 159/2/3
f 163/2/3 162/2/3 161/2/3
f 164/2/3 162/2/3 163/2/3
f 173/1/3 166/1/3 165/1/3
f 174/1/3 166/1/3 173/1/3
f 175/1/3 168/1/3 167/1/3
f 176/1/3 168/1/3 175/1/3
f 177/1/3 170/1/3 169/1/3
f 178/1/3 170/1/3 177/1/3
f 179/1/3 172/1/3 171/1/3
f 180/1/3 172/1/3 179/1/3
f 189/1/3 182/1/3 181/1/3
f 190/1/3 182/1/3 189/1/3
f 191/1/3 184/1/3 183/1/3
f 192/1/3 184/1/3 191/1/3
f 193/1/3 186/1/3 185/1/3
f 194/1/3 186/1/3 193/1/3
f 195/1/3 188/1/3 187/1/3
f 196/1/3 188/1/3 195/1/3
f 197/1/4 198/1/4 199/1/4
f 199/1/4 198/1/4 200/1/4
f 204/2/5 202/2/5 201/2/5
f 205/2/5 202/2/5 204/2/5
f 207/1/5 204/1/5 203/1/5
f 207/1/5 206/1/5 205/1/5
f 207/1/5 205/1/5 204/1/5
f 208/1/5 206/1/5 207/1/5
f 213/1/5 210/1/5 209/1/5
f 214/1/5 210/1/5 213/1/5
f 215/1/5 212/1/5 211/1/5
f 216/1/5 212/1/5 215/1/5
f 221/1/5 218/1/5 217/1/5
f 222/1/5 218/1/5 221/1/5
f 223/1/5 220/1/5 219/1/5
f 224/1/5 220/1/5 223/1/5
f 229/1/5 226/1/5 225/1/5
f 230/1/5 226/1/5 229/1/5
f 231/1/5 228/1/5 227/1/5
f 232/1/5 228/1/5 231/1/5
f 233/1/6 234/1/6 237/1/6
f 237/1/6 234/1/6 238/1/6
f 235/1/6 236/1/6 239/1/6
f 239/1/6 236/1/6 240/1/6
f 241/1/6 242/1/6 245/1/6
f 245/1/6 242/1/6 246/1/6
f 243/1/6 244/1/6 247/1/6
f 247/1/6 244/1/6 248/1/6
f 249/1/6 250/1/6 253/1/6
f 253/1/6 250/1/6 254/1/6
f 251/1/6 252/1/6 255/1/6
f 255/1/6 252/1/6 256/1/6
f 257/2/6 258/2/6 259/2/6
f 259/2/6 258/2/6 260/2/6
f 261/2/6 262/2/6 263/2/6
f 263/2/6 262/2/6 264/2/6
f 265/2/6 266/2/6 267/2/6
f 267/2/6 266/2/6 268/2/6
f 269/2/6 270/2/6 271/2/6
f 271/2/6 270/2/6 272/2/6
f 273/2/6 274/2/6 275/2/6
f 275/2/6 274/2/6 276/2/6
f 277/2/6 278/2/6 279/2/6
f 279/2/6 278/2/6 280/2/6
f 281/2/6 282/2/6 283/2/6
f 283/2/6 282/2/6 284/2/6
f 285/2/6 286/2/6 287/2/6
f 287/2/6 286/2/6 288/2/6
f 289/2/6 290/2/6 291/2/6
f 291/2/6 290/2/6 292/2/6
f 293/2/6 294/2/6 296/2/6
f 296/2/6 294/2/6 297/2/6
f 295/1/6 296/1/6 299/1/6
f 297/1/6 298/1/6 299/1/6
f 296/1/6 297/1/6 299/1/6
f 299/1/6 298/1/6 300/1/6
